<?xml version="1.0" encoding="utf-8"?>
<!-- Generator: Adobe Illustrator 24.1.2, SVG Export Plug-In . SVG Version: 6.00 Build 0)  -->
<svg version="1.1" id="Layer_1" xmlns="http://www.w3.org/2000/svg" xmlns:xlink="http://www.w3.org/1999/xlink" x="0px" y="0px"
	 viewBox="0 0 328.1 437.2" style="enable-background:new 0 0 328.1 437.2;" xml:space="preserve">
<style type="text/css">
	.st0{fill:#181A1B;}
</style>
<g>
	<path class="st0" d="M328.1,245.9c0,50.3,0,100.6,0,150.9c0,22.2-18.1,40.4-40.2,40.4c-82.6,0-165.2,0-247.8,0
		c-21.6,0-39.9-18.4-39.9-40.2C0.2,297,0.4,197.1,0,97.2c-0.1-21.4,16.5-42.8,42.4-42.8c20.5,0,41-0.1,61.5,0.1
		c4.1,0,5.6-0.8,6.1-5.2c2.7-25.2,19.7-44.1,44.5-48.4c34.7-6,60.5,18.9,63.8,46.3c0.9,7.2,0.8,7.2,8.1,7.2c20,0,40-0.2,60,0
		c21,0.2,37.4,13.9,41.4,34.1c0.4,2.3,0.5,4.6,0.5,7C328.1,145.6,328.1,195.8,328.1,245.9z M287.1,245.8c0-47.1,0-94.3,0-141.4
		c0-6.3-2.4-8.8-8.6-8.9c-9.7-0.1-19.3,0-29-0.1c-2.6,0-3.5,0.8-3.4,3.4c0.1,7.5,0.1,15,0,22.5c-0.1,9.8-5.2,15.1-15.1,15.1
		c-44.8,0.1-89.6,0.1-134.4,0c-9.2,0-14.5-5.5-14.5-14.6c-0.1-7.5-0.1-15,0.1-22.5c0.1-3.1-0.8-4-3.9-4c-8.8,0.2-17.7,0.1-26.5,0.1
		c-8.6,0-10.6,2-10.7,10.5c0,93.4,0,186.8,0,280.3c0,8.1,1.9,10,9.9,10c75.4,0,150.9,0,226.3,0c7.8,0,9.8-1.9,9.8-9.6
		C287.1,339.7,287.1,292.7,287.1,245.8z M164.1,68.2c7.4,0,13.7-6.3,13.8-13.6c0.1-7.4-6.1-13.6-13.6-13.6s-13.7,6-13.8,13.5
		C150.4,61.8,156.8,68.3,164.1,68.2z"/>
	<path class="st0" d="M252.3,218.8c0.2,3.4-1.6,5.6-3.6,7.6c-31.3,31.1-62.8,62-93.9,93.3c-11.8,11.8-14.1,10-24.3-0.4
		c-16.6-16.9-33.3-33.6-50-50.3c-6.3-6.4-6.3-10.5,0.1-16.9C86,246.7,91.5,241.3,97,236c5.4-5.3,9.5-5.3,15,0.2
		c9.2,9.2,18.4,18.3,27.3,27.8c3.2,3.4,4.7,2.8,7.6-0.2c22.9-23,46-45.8,69-68.7c6.3-6.2,10.3-6.2,16.5,0
		c5.4,5.4,10.8,10.9,16.2,16.3C250.7,213.4,252.6,215.7,252.3,218.8z"/>
</g>
</svg>
