<?xml version="1.0" encoding="utf-8"?>
<!-- Generator: Adobe Illustrator 24.1.2, SVG Export Plug-In . SVG Version: 6.00 Build 0)  -->
<svg version="1.1" id="Layer_1" xmlns="http://www.w3.org/2000/svg" xmlns:xlink="http://www.w3.org/1999/xlink" x="0px" y="0px"
	 viewBox="0 0 492.1 437.1" style="enable-background:new 0 0 492.1 437.1;" xml:space="preserve">
<style type="text/css">
	.st0{fill:#181A1B;}
</style>
<g>
	<path class="st0" d="M437.5,215.2c0,3.3,0,5.3,0,7.3c0,59,0,117.9,0,176.9c0,11.9-3.1,22.3-12.7,30.1c-6,4.9-12.8,7.6-20.6,7.6
		c-105.6,0-211.2,0-316.8,0c-18.9,0-32.7-15.6-32.8-36.6c-0.1-31.6,0-63.3,0-94.9c0-28,0-56,0-83.9c0-1.7,0-3.5,0-6.5
		c-6.9,6.2-12.9,11.4-18.7,16.7c-11,9.9-17,9.7-26.8-1.1c-1.6-1.7-3.1-3.5-4.6-5.3c-6.5-8-6.1-14.9,1.6-21.8
		c18.1-16.4,36.4-32.7,54.6-49.1C113.8,106.9,167,59.2,220.1,11.5c16.9-15.1,34.8-15.2,51.7-0.2c13,11.5,25.7,23.1,38.7,34.7
		c1,0.9,1.8,2.9,3.5,2.1c1.3-0.6,0.8-2.4,0.9-3.7c1.4-9.2,9.4-16.8,18.8-16.9c28.1-0.2,56.3-0.3,84.4,0c10.2,0.1,18.1,8.1,19,18.3
		c0.2,2.5,0.3,5,0.3,7.5c0,34.1,0,68.3,0,102.4c0,3,0.7,5.1,3.2,7.3c15,13.2,29.8,26.6,44.6,40.1c8.9,8.1,9.2,15,1.1,24
		c-2.2,2.5-4.4,5-6.7,7.4c-6,6-13.1,6.4-19.6,0.9c-5.7-4.8-11.2-10-16.7-15C441.7,218.8,440.1,217.4,437.5,215.2z M396.6,287.3
		c0-34.5-0.1-69,0.1-103.4c0-4-1.1-6.7-4.1-9.4c-47.7-42.6-95.2-85.3-142.7-128.1c-3-2.7-4.5-2.7-7.5-0.1
		c-47.7,43-95.6,85.9-143.4,128.8c-2.4,2.2-3.4,4.4-3.4,7.7c0.1,27.5,0.1,55,0.1,82.4c0,42.1,0.1,84.3-0.1,126.4
		c0,3.7,0.9,4.8,4.7,4.7c10.8-0.3,21.7-0.2,32.5,0c3.4,0.1,4.2-1,4.1-4.2c-0.2-9.8-0.1-19.6,2.3-29.3c8.9-35.1,39.5-60.4,75.5-61.8
		c21.3-0.8,42.7-1.2,63.9,0.1c31.1,1.9,53.6,17.8,68.2,45c7.6,14.2,9.2,29.7,8.5,45.5c-0.2,3.8,0.9,4.8,4.7,4.7
		c10.5-0.3,21-0.3,31.5,0c4.1,0.1,5.3-0.9,5.3-5.1C396.5,356.6,396.6,321.9,396.6,287.3z M396.6,123.2c0-18.4,0-35.6,0-52.8
		c0-1.8-1-2.2-2.5-2.2c-12,0-23.9,0-35.9,0c-2.1,0-2.8,0.8-2.9,2.9c-0.5,9.1-1,18.1,8.9,23.1c1,0.5,1.7,1.5,2.6,2.3
		C376.4,105.1,386,113.7,396.6,123.2z"/>
	<path class="st0" d="M246.3,164.1c30.1,0.2,54.9,25,54.5,54.6c-0.4,30.5-24.8,54.6-55.3,54.5c-29.8-0.1-54.5-25.1-54.2-55
		C191.7,188,216.2,163.9,246.3,164.1z"/>
</g>
</svg>
