<?xml version="1.0" encoding="utf-8"?>
<!-- Generator: Adobe Illustrator 24.1.2, SVG Export Plug-In . SVG Version: 6.00 Build 0)  -->
<svg version="1.1" id="Layer_1" xmlns="http://www.w3.org/2000/svg" xmlns:xlink="http://www.w3.org/1999/xlink" x="0px" y="0px"
	 viewBox="0 0 144.3 65.2" style="enable-background:new 0 0 144.3 65.2;" xml:space="preserve">
<style type="text/css">
	.st0{fill:#F9E930;}
</style>
<g>
	<path class="st0" d="M12.2,38l26.4,25.6l0.2,0.2l4.6-4.5L16.8,33.4L12.2,38z M39.5,6.3l-4.8-4.5L12.2,25.7l4.7,4.4L39.5,6.3z
		 M0,64.2h6.5V0H0V64.2z M114.9,33.2v6.5h22.9l0.1,23.9h6.5l0-30.5H114.9z M130.1,57.8c-0.9,0.1-1.8,0.1-2.6,0.1h0
		c-12.4,0-22.7-9.2-23.9-21.4c-0.7-6.4,1.1-12.6,5.1-17.6c4-5.1,9.8-8.2,16.2-8.9l0.3,0l-0.8-6.6l-0.3,0
		c-16.8,1.8-28.9,17.1-27.1,33.9c1.7,15.1,14.4,26.8,29.5,27.3c0.4,0,0.8,0,1.2,0c1,0,2-0.1,3.2-0.2l0.3,0l-0.7-6.5L130.1,57.8z
		 M84.5,0.8L78,1.1l1.8,35.4c-3-6.1-9.1-10-16-10c-9.7,0-17.7,8-17.7,17.8c0,9.7,7.9,17.7,17.7,17.7c7.5,0,14.1-4.7,16.6-11.5
		l0.8,14.8l6.5-0.3L84.5,1.1L84.5,0.8z M63.8,55.3c-6.1,0-11.1-4.9-11.1-11c0-6.2,5-11.2,11.1-11.2C70,33,75,38.1,75,44.2
		C75,50.3,70,55.3,63.8,55.3z"/>
</g>
</svg>
