<svg id="Layer_6" data-name="Layer 6" xmlns="http://www.w3.org/2000/svg" viewBox="0 0 999.95 699.27"><defs><style>.cls-1{fill:#fcee21;}.cls-2{fill:#f2f2f2;}.cls-3{fill:#333;}</style></defs><path class="cls-1" d="M886.15,128.35V594.16q-37.21,7.73-93.61,7.74-48.91,0-91.49-14.38a202.6,202.6,0,0,1-74.46-44.26q-31.92-29.88-50-76.9t-18.08-112.3c0-1.5,0-2.94.06-4.43h-.11c0-1.84,0-3.67,0-5.53q0-86.3-25.53-151T460.64,85.2Q413.83,42,348.41,21T204.27,0q-41.49,0-85.1,3.87T38.32,19.92q-18.1,5.55-28.19,16T0,65.28V527.42c34.31,30.64,113.83,43.5,113.83,43.5V105.11q37.22-7.73,93.61-7.74,48.91,0,91.49,14.38A202.46,202.46,0,0,1,373.41,156q31.92,29.87,50,76.9t18.08,112.3c0,1.5-.05,2.94-.06,4.42h.11c0,1.85-.05,3.68-.05,5.54q0,86.29,25.53,151t72.34,107.87q46.82,43.15,112.23,64.18t144.14,21q41.49,0,85.1-3.87t80.85-16q18.11-5.55,28.19-16T1000,634V171.85C965.67,141.21,886.15,128.35,886.15,128.35Z" transform="translate(-0.02)"/><path class="cls-2" d="M552.66,184.67a365.61,365.61,0,0,1,18.55,64.66q14.53-52.54,45.78-87.24,58.51-64.73,169.14-64.72,26.61,0,52.66,1.66a254.84,254.84,0,0,1,44.13,6.4l6.5,1c7.79,1.26,70.21,12,110.53,38.13v-65q0-43.14-48.93-59.74-39.35-13.29-85.1-16.6T786.13,0Q708.49,0,644.65,21.57t-109,65.84a264.7,264.7,0,0,0-22.28,24.8A329.21,329.21,0,0,1,552.66,184.67Z" transform="translate(-0.02)"/><path class="cls-2" d="M447.34,514.59a366.91,366.91,0,0,1-18.56-64.7q-14.53,52.58-45.8,87.29-58.51,64.73-169.14,64.72-26.59,0-52.65-1.66A255.27,255.27,0,0,1,117,593.83l-6.43-1c-7.79-1.26-70.24-12-110.56-38.15v65Q0,662.76,49,679.35q39.35,13.27,85.1,16.6t79.78,3.32q77.64,0,141.48-21.58t109-65.83a262.25,262.25,0,0,0,22.3-24.81A329.41,329.41,0,0,1,447.34,514.59Z" transform="translate(-0.02)"/><path class="cls-3" d="M315.22-26.16" transform="translate(-0.02)"/></svg>