<?xml version="1.0" encoding="utf-8"?>
<!-- Generator: Adobe Illustrator 24.1.1, SVG Export Plug-In . SVG Version: 6.00 Build 0)  -->
<svg version="1.1" xmlns="http://www.w3.org/2000/svg" xmlns:xlink="http://www.w3.org/1999/xlink" x="0px" y="0px"
	 viewBox="0 0 2520.7 699.3" style="enable-background:new 0 0 2520.7 699.3;" xml:space="preserve">
<style type="text/css">
	.st0{display:none;}
	.st1{display:inline;fill:#333333;}
	.st2{display:inline;}
	.st3{fill:#FCEE21;}
	.st4{font-family:'BalooChettan2-SemiBold';}
	.st5{font-size:96px;}
	.st6{fill:#FFFFFF;}
	.st7{font-family:'BalooChettan2-Regular';}
	.st8{fill:#F2F2F2;}
	.st9{fill:#333333;}
</style>
<g id="Layer_5" class="st0">
	<rect x="102.6" y="-128.7" class="st1" width="1000" height="1000"/>
</g>
<g id="Layer_3" class="st0">
	<text transform="matrix(1 0 0 1 283.7618 559.9081)" class="st2"><tspan x="0" y="0" class="st3 st4 st5">Drive</tspan><tspan x="227.8" y="0" class="st6 st7 st5">Deck</tspan></text>
</g>
<g id="Layer_6">
	<g>
		<path class="st3" d="M886.2,128.3v465.8c-24.8,5.2-56,7.7-93.6,7.7c-32.6,0-63.1-4.8-91.5-14.4c-28.4-9.6-53.2-24.3-74.5-44.3
			c-21.3-19.9-37.9-45.6-50-76.9c-12.1-31.4-18.1-68.8-18.1-112.3c0-1.5,0.1-2.9,0.1-4.4h-0.1c0-1.8,0-3.7,0-5.5
			c0-57.5-8.5-107.9-25.5-151c-17-43.1-41.1-79.1-72.3-107.9C429.4,56.4,392,35,348.4,21C304.8,7,256.7,0,204.3,0
			c-27.7,0-56,1.3-85.1,3.9c-29.1,2.6-56,7.9-80.8,16c-12.1,3.7-21.5,9-28.2,16C3.4,43,0,52.7,0,65.3v462.1
			c34.3,30.6,113.8,43.5,113.8,43.5V105.1c24.8-5.2,56-7.7,93.6-7.7c32.6,0,63.1,4.8,91.5,14.4c28.4,9.6,53.2,24.3,74.5,44.3
			c21.3,19.9,37.9,45.6,50,76.9c12.1,31.4,18.1,68.8,18.1,112.3c0,1.5-0.1,2.9-0.1,4.4h0.1c0,1.8,0,3.7,0,5.5
			c0,57.5,8.5,107.9,25.5,151c17,43.1,41.1,79.1,72.3,107.9c31.2,28.8,68.6,50.2,112.2,64.2c43.6,14,91.7,21,144.1,21
			c27.7,0,56-1.3,85.1-3.9c29.1-2.6,56-7.9,80.8-16c12.1-3.7,21.5-9,28.2-16c6.7-7,10.1-16.8,10.1-29.3V171.8
			C965.7,141.2,886.2,128.3,886.2,128.3z"/>
		<g>
			<path class="st8" d="M552.7,184.7c7.9,20,14.1,41.6,18.5,64.7c9.7-35,24.9-64.2,45.8-87.2c39-43.1,95.4-64.7,169.1-64.7
				c17.7,0,35.3,0.6,52.7,1.7c16.1,1,30.8,3.2,44.1,6.4l6.5,1.1c7.8,1.3,70.2,12,110.5,38.1V79.7c0-28.8-16.3-48.7-48.9-59.7
				c-26.2-8.9-54.6-14.4-85.1-16.6C835.4,1.1,808.8,0,786.1,0c-51.8,0-98.9,7.2-141.5,21.6c-42.6,14.4-78.9,36.3-109,65.8
				c-7.9,7.7-15.3,16-22.3,24.8C529,133.9,542.2,158.1,552.7,184.7z"/>
			<path class="st8" d="M447.3,514.6c-7.9-20.1-14.1-41.7-18.6-64.7c-9.7,35.1-24.9,64.2-45.8,87.3c-39,43.2-95.4,64.7-169.1,64.7
				c-17.7,0-35.3-0.6-52.7-1.7c-16.1-1-30.8-3.2-44.2-6.4l-6.4-1c-7.8-1.3-70.2-12-110.6-38.1v65c0,28.8,16.3,48.7,48.9,59.7
				c26.2,8.9,54.6,14.4,85.1,16.6c30.5,2.2,57.1,3.3,79.8,3.3c51.8,0,98.9-7.2,141.5-21.6s78.9-36.3,109-65.8
				c7.9-7.7,15.3-16,22.3-24.8C471,565.4,457.8,541.2,447.3,514.6z"/>
		</g>
	</g>
	<path class="st9" d="M315.2-26.2"/>
	<g>
		<path class="st3" d="M1173,0h109.3c47.1,0,80.4,4.4,99.9,13.1c19.5,8.7,31.8,23.6,37,44.7c5.2,21.1,7.7,57.3,7.7,108.6
			s-2.6,87.5-7.7,108.8c-5.2,21.3-17.5,36.2-37,44.7c-19.5,8.5-52.8,12.8-99.9,12.8H1173V0z M1276.9,283.4c34.2,0,57-1.8,68.4-5.3
			c11.4-3.5,18.9-12.6,22.2-27.1c3.4-14.5,5.1-42.7,5.1-84.6c0-41.3-1.8-69.2-5.3-83.9c-3.6-14.7-11.1-23.9-22.7-27.6
			c-11.6-3.7-34.2-5.6-67.7-5.6h-49.3v234.1H1276.9z"/>
		<path class="st3" d="M1704.9,332.7L1655.6,207h-1h-94.3v125.7h-54.6V0h155.2c27.1,0,47.6,4.1,61.7,12.3c14,8.2,23.4,19.7,28,34.3
			c4.7,14.7,7,33.6,7,56.8c0,22.2-3.3,42.2-9.9,59.7c-6.6,17.6-19.8,29.7-39.4,36.5l54.6,133H1704.9z M1681.4,153.1
			c9.2-3.4,15.1-8.8,17.7-16.2c2.6-7.4,3.9-18.5,3.9-33.4c0-15.5-1.2-26.8-3.6-33.9c-2.4-7.1-8-12.2-16.7-15.5
			c-8.7-3.2-22.9-4.8-42.6-4.8h-79.8v108.8h77.9C1657.8,158.1,1672.3,156.4,1681.4,153.1z"/>
		<path class="st3" d="M1834.5,332.7V0h54.6v332.7H1834.5z"/>
		<path class="st3" d="M2057.9,332.7L1944.3,0h56.6l92.4,269.8h2.4L2187.5,0h55.1l-113.2,332.7H2057.9z"/>
		<path class="st3" d="M2298.7,332.7V0h222v49.3h-167.3v90.9H2498v49.3h-144.6v93.8h167.3v49.3H2298.7z"/>
		<path class="st8" d="M1173,362.7h109.3c47.1,0,80.4,4.4,99.9,13.1c19.5,8.7,31.8,23.6,37,44.7c5.2,21.1,7.7,57.3,7.7,108.6
			c0,51.3-2.6,87.5-7.7,108.8c-5.2,21.3-17.5,36.2-37,44.7c-19.5,8.5-52.8,12.8-99.9,12.8H1173V362.7z M1276.9,646.1
			c34.2,0,57-1.8,68.4-5.3c11.4-3.5,18.9-12.6,22.2-27.1c3.4-14.5,5.1-42.7,5.1-84.6c0-41.3-1.8-69.2-5.3-83.9
			c-3.6-14.7-11.1-23.9-22.7-27.6c-11.6-3.7-34.2-5.6-67.7-5.6h-49.3v234.1H1276.9z"/>
		<path class="st8" d="M1505.7,695.4V362.7h222V412h-167.3v90.9h144.6v49.3h-144.6v93.8h167.3v49.3H1505.7z"/>
		<path class="st8" d="M1967.7,697.3c-15.3,1.3-29.6,1.9-42.8,1.9c-40.3,0-70-4.7-89-14c-19-9.3-31.8-25.6-38.2-48.8
			c-6.5-23.2-9.7-59-9.7-107.4c0-48.4,3.2-84.1,9.7-107.4c6.4-23.2,19.2-39.5,38.2-48.8c19-9.3,48.7-14,89-14
			c13.5,0,27.8,0.8,42.8,2.4c15,1.6,27.3,3.6,37,5.8V413c-25.8-3.2-47.9-4.8-66.3-4.8c-31.6,0-53.5,2.4-65.8,7.3
			c-12.3,4.8-20.3,15-24.2,30.5c-3.9,15.5-5.8,43.2-5.8,83.2c0,40,1.9,67.7,5.8,83.2c3.9,15.5,11.9,25.6,24.2,30.5
			c12.2,4.8,34.2,7.3,65.8,7.3c25.1,0,47.9-1.6,68.2-4.8V692C1996,694.3,1983,696,1967.7,697.3z"/>
		<path class="st8" d="M2285.2,695.4l-106.9-144.6h-46.9v144.6h-54.6V362.7h54.6v138.8h46.9l108.8-138.8h60.4l-125.2,160.1
			L2349,695.4H2285.2z"/>
	</g>
</g>
</svg>
