<?xml version="1.0" encoding="utf-8"?>
<!-- Generator: Adobe Illustrator 24.1.2, SVG Export Plug-In . SVG Version: 6.00 Build 0)  -->
<svg version="1.1" id="Layer_6" xmlns="http://www.w3.org/2000/svg" xmlns:xlink="http://www.w3.org/1999/xlink" x="0px" y="0px"
	 viewBox="0 0 1000 699.3" style="enable-background:new 0 0 1000 699.3;" xml:space="preserve">
<style type="text/css">
	.st0{fill:#FCEE21;}
	.st1{fill:#333333;}
</style>
<g>
	<path class="st0" d="M886.2,128.6v465.6c-24.8,5.2-56,7.7-93.6,7.7c-32.6,0-63.1-4.8-91.5-14.4c-27.7-9.2-53.1-24.3-74.5-44.2
		c-21.3-19.9-37.9-45.5-50-76.9s-18.1-68.8-18.1-112.3c0-1.5,0-2.9,0.1-4.4h-0.1c0-1.8,0-3.7,0-5.5c0-57.5-8.5-107.8-25.5-150.9
		s-41.1-79.1-72.3-107.9C429.4,56.7,392,35.3,348.4,21.3s-91.7-21-144.1-21c-27.7,0-56,1.3-85.1,3.9s-56,7.9-80.9,16
		c-12.1,3.7-21.5,9-28.2,16S0,52.9,0,65.5v462C34.3,558.1,113.8,571,113.8,571V105.3c24.8-5.2,56-7.7,93.6-7.7
		c32.6,0,63.1,4.8,91.5,14.4c27.7,9.2,53.1,24.3,74.5,44.2c21.3,19.9,37.9,45.5,50,76.9c12.1,31.3,18.1,68.8,18.1,112.3
		c0,1.5,0,2.9-0.1,4.4h0.1c0,1.8,0,3.7,0,5.5c0,57.5,8.5,107.8,25.5,150.9c17,43.1,41.1,79.1,72.3,107.8
		c31.2,28.8,68.6,50.1,112.2,64.2c43.6,14,91.7,21,144.1,21c27.7,0,56-1.3,85.1-3.9c29.1-2.6,56-7.9,80.8-16
		c12.1-3.7,21.5-9,28.2-16c6.7-7,10.1-16.7,10.1-29.3v-462C965.7,141.4,886.2,128.6,886.2,128.6z"/>
	<path class="st1" d="M552.7,184.9c8.2,20.9,14.4,42.6,18.5,64.6c9.7-35,24.9-64.1,45.8-87.2c39-43.1,95.4-64.7,169.1-64.7
		c17.7,0,35.3,0.6,52.7,1.7c14.9,0.8,29.6,3,44.1,6.4l6.5,1c7.8,1.3,70.2,12,110.5,38.1v-65c0-28.7-16.3-48.7-48.9-59.7
		c-26.2-8.9-54.6-14.4-85.1-16.6s-57.1-3.3-79.8-3.2c-51.8,0-98.9,7.2-141.5,21.6c-42.6,14.4-78.9,36.3-109,65.8
		c-7.9,7.8-15.4,16.1-22.3,24.8C529.5,134.8,542.7,159.2,552.7,184.9z"/>
	<path class="st1" d="M447.3,514.7c-8.2-20.9-14.4-42.6-18.6-64.7c-9.7,35-25,64.1-45.8,87.3c-39,43.1-95.4,64.7-169.1,64.7
		c-17.7,0-35.3-0.6-52.7-1.7c-14.9-0.8-29.7-3-44.2-6.4l-6.4-1c-7.8-1.3-70.2-12-110.6-38.1v65c0,28.7,16.3,48.6,49,59.6
		c26.2,8.8,54.6,14.4,85.1,16.6s57.1,3.3,79.8,3.3c51.8,0,98.9-7.2,141.5-21.6c42.6-14.4,78.9-36.3,109-65.8
		c8-7.8,15.4-16.1,22.3-24.8C470.6,564.7,457.4,540.4,447.3,514.7z"/>
</g>
</svg>
