<?xml version="1.0" encoding="utf-8"?>
<!-- Generator: Adobe Illustrator 24.1.2, SVG Export Plug-In . SVG Version: 6.00 Build 0)  -->
<svg version="1.1" id="Layer_1" xmlns="http://www.w3.org/2000/svg" xmlns:xlink="http://www.w3.org/1999/xlink" x="0px" y="0px"
	 viewBox="0 0 437.6 437.7" style="enable-background:new 0 0 437.6 437.7;" xml:space="preserve">
<style type="text/css">
	.st0{fill:#181A1B;}
</style>
<g>
	<path class="st0" d="M29.9,191.7c1.7,0,3.2,0,4.6,0c52,0,103.9,0,155.9-0.1c2.8,0,5.1,0.6,7.2,2.5c19.7,17,42.7,24.9,68.7,24.9
		c52.5-0.2,104.9,0,157.4-0.1c3.8,0,5.8,1,6.8,4.6c1.7,6.2,5.4,11.7,6.5,18.2c2.9,16.5-9.7,31.9-26.4,32.1c-8,0.1-16,0.2-24-0.1
		c-3.1-0.1-3.9,0.9-3.9,3.9c0.1,16.8,0.2,33.6,0,50.5c-0.2,27.1-17.8,48.7-44,54.1c-5.4,1.1-10.9,1.1-16.4,1.1
		c-14.7,0-29.3,0.2-44-0.1c-4.1-0.1-4.9,1.3-4.8,5c0.2,15.2,0,30.3,0.2,45.5c0,3.3-0.9,4.1-4.2,4.1c-61.1-0.1-122.2-0.1-183.4,0
		c-4.4,0-4.3-1.9-4.3-5c0.1-47,0-93.9,0.1-140.9c0-4-1.2-6.7-4.1-9.5c-22.8-21.7-37.8-48-45.5-78.5C31.6,199.9,30.9,196,29.9,191.7z
		"/>
	<path class="st0" d="M319.9,27.7c-19.5,0-38.9,0-58.4,0c-46.7,0.1-84.2,29.5-94.8,75c-4.5,19.1-3.1,37.9,4.9,56
		c0.7,1.5,1.3,3.1,1.9,4.6c0.1,0.1,0,0.3-0.1,1c-1.3,0-2.7,0-4.1,0c-50.6,0-101.3,0-151.9,0c-12.2,0-17.2-5-17.3-17.2
		c0-7.5-0.1-15,0-22.5c0.2-9.7,5.6-15,15.3-15c5.8,0,11.7-0.2,17.5,0.1c3.2,0.2,4.7-1.1,5.8-4c13.2-34.6,35.7-61.6,67.1-81.1
		c20.1-12.6,42-20.8,65.7-22.9c26.4-2.3,52.9-2.6,79.3,0.2C275.6,4.6,298.8,13.5,319.9,27.7z"/>
	<path class="st0" d="M355.7,123.4c0,21.3-0.1,42.6,0.1,64c0,3.5-0.9,4.4-4.4,4.4c-30.2-0.2-60.3,0.1-90.5-0.2
		c-33.2-0.4-62.5-24.9-68.4-56.8c-6-32.4,13.7-65.6,45-76.1c7.8-2.6,15.8-3.8,24-3.9c29.8-0.1,59.6,0,89.5-0.1c3.7,0,4.7,1,4.7,4.7
		C355.6,80.7,355.7,102,355.7,123.4z"/>
	<path class="st0" d="M382.8,123.1c0-21.3,0.1-42.6-0.1-63.9c0-3.4,0.7-4.6,4.4-4.5c11.5,0.2,23,0,34.5,0.1
		c10.9,0.1,16,5.4,16.1,16.4c0,34.6,0,69.3,0,103.9c0,11.4-5,16.5-16.3,16.5c-11.5,0-23-0.1-34.5,0.1c-3.3,0.1-4.1-0.9-4.1-4.2
		C382.9,166.1,382.8,144.6,382.8,123.1z"/>
</g>
</svg>
